<svg id="Capa_1" enable-background="new 0 0 512 512" height="512" viewBox="0 0 512 512" width="512" xmlns="http://www.w3.org/2000/svg"><circle cx="442.544" cy="137.298" fill="#ccf5fc" r="30.078"/><circle cx="69.456" cy="137.298" fill="#fff7bf" r="30.078"/><circle cx="442.544" cy="374.845" fill="#fff7bf" r="30.078"/><circle cx="69.456" cy="374.845" fill="#ccf5fc" r="30.078"/><circle cx="256" cy="471.922" fill="#ffbdbc" r="30.078"/><circle cx="256" cy="40.078" fill="#ffbdbc" r="30.078"/><path d="m256 112.222-123 64.015 123 64.014 123-64.014z" fill="#faf7f5"/><path d="m379 176.237-123 64.014v159.527l123-64.015" fill="#ccf5fc"/><path d="m256 399.778-123-64.015v-159.526l123 64.014z" fill="#66e0f7"/><path d="m379 242.87c-4.115 0-7.893-2.63-9.347-6.468-1.453-3.836-.353-8.353 2.753-11.056 3.198-2.783 7.912-3.257 11.591-1.14 3.665 2.109 5.643 6.468 4.803 10.613-.935 4.611-5.076 8.051-9.8 8.051z"/><path d="m383.502 185.166c.043-.022.123-.069.235-.138 6.492-4.034 6.49-13.546 0-17.583-.114-.071-.195-.119-.239-.141l-122.88-63.952c-2.894-1.506-6.34-1.506-9.233 0l-122.977 64.003c-.013.006-.158.09-.393.227-3.134 1.819-5.063 5.19-5.013 8.813v.018 159.351c0 3.729 2.075 7.148 5.383 8.87l123 64.014s.001 0 .001.001c2.883 1.451 6.293 1.458 9.184.023.031-.016.048-.024.048-.024l123-64.014c4.105-2.136 5.383-7.05 5.383-11.8v-54.601c0-5.326-4.02-9.977-9.335-10.321-5.824-.377-10.665 4.236-10.665 9.978v51.806l-103.001 53.604v-136.98zm-127.502-61.67 101.339 52.741-101.339 52.741-101.339-52.741zm-113 69.218 103 53.605v136.981l-103-53.604z"/><path d="m452.544 336.029v-159.916c17.276-4.454 30.078-20.167 30.078-38.815 0-22.1-17.979-40.079-40.078-40.079-11.742 0-22.32 5.076-29.657 13.148l-117.821-61.32c.662-2.884 1.012-5.886 1.012-8.969 0-22.099-17.979-40.078-40.078-40.078s-40.078 17.979-40.078 40.078c0 3.083.35 6.085 1.012 8.969l-117.821 61.32c-7.337-8.072-17.915-13.148-29.657-13.148-22.099 0-40.078 17.979-40.078 40.079 0 18.648 12.802 34.362 30.078 38.815v159.916c-17.277 4.454-30.078 20.168-30.078 38.815 0 22.1 17.979 40.078 40.078 40.078 11.788 0 22.404-5.116 29.744-13.244l117.734 61.274c-.662 2.884-1.012 5.887-1.012 8.969 0 22.1 17.979 40.078 40.078 40.078s40.078-17.978 40.078-40.078c0-3.082-.35-6.085-1.012-8.969l117.734-61.273c7.34 8.128 17.956 13.244 29.744 13.244 22.099 0 40.078-17.979 40.078-40.078.001-18.648-12.801-34.362-30.078-38.816zm-10-218.81c11.071 0 20.078 9.008 20.078 20.079s-9.007 20.078-20.078 20.078-20.079-9.007-20.079-20.078c.001-11.071 9.008-20.079 20.079-20.079zm-186.544-97.219c11.071 0 20.078 9.007 20.078 20.078s-9.007 20.078-20.078 20.078-20.078-9.007-20.078-20.078 9.007-20.078 20.078-20.078zm-206.623 117.298c0-11.071 9.007-20.079 20.078-20.079s20.079 9.008 20.079 20.079-9.007 20.078-20.079 20.078-20.078-9.007-20.078-20.078zm20.079 257.625c-11.071 0-20.078-9.007-20.078-20.078s9.007-20.078 20.078-20.078 20.079 9.007 20.079 20.078-9.008 20.078-20.079 20.078zm186.544 97.077c-11.071 0-20.078-9.007-20.078-20.078s9.007-20.078 20.078-20.078 20.078 9.007 20.078 20.078-9.007 20.078-20.078 20.078zm29.849-46.795c-7.344-8.196-18.004-13.361-29.849-13.361s-22.505 5.165-29.849 13.361l-117.665-61.238c.685-2.931 1.048-5.985 1.048-9.122 0-18.648-12.802-34.362-30.079-38.815v-159.917c17.277-4.453 30.079-20.167 30.079-38.815 0-3.182-.374-6.279-1.078-9.249l117.695-61.254c7.344 8.196 18.004 13.361 29.848 13.361 11.845 0 22.505-5.165 29.849-13.361l117.695 61.254c-.704 2.97-1.078 6.066-1.078 9.249 0 18.648 12.802 34.362 30.079 38.815v159.916c-17.277 4.453-30.079 20.167-30.079 38.815 0 3.137.363 6.19 1.048 9.122zm156.695-50.282c-11.071 0-20.079-9.007-20.079-20.078s9.007-20.078 20.079-20.078 20.078 9.007 20.078 20.078-9.006 20.078-20.078 20.078z"/></svg>