<?xml version="1.0" encoding="utf-8"?>
<!-- Generator: Adobe Illustrator 22.1.0, SVG Export Plug-In . SVG Version: 6.00 Build 0)  -->
<svg version="1.1" id="Layer_1" xmlns="http://www.w3.org/2000/svg" xmlns:xlink="http://www.w3.org/1999/xlink" x="0px" y="0px"
	 viewBox="0 0 305 305" style="enable-background:new 0 0 305 305;" xml:space="preserve">
<style type="text/css">
	.st0{fill:#FCFCFC;}
</style>
<g id="XMLID_7_">
	<path id="XMLID_8_" class="st0" d="M151,56.5c-14.1,9.9-30.1,21.1-38.6,39.7c-14.9,32.4,30.4,67.8,32.4,69.3c0.4,0.3,1,0.5,1.5,0.5
		c0.6,0,1.1-0.2,1.6-0.6c0.9-0.8,1.2-2,0.6-3.1c-0.2-0.3-16.4-31.9-15.8-54.5c0.2-7.9,11.3-16.8,22.9-26.3
		c10.7-8.7,22.8-18.5,29.9-30c15.6-25.3-1.7-50.2-1.9-50.5c-0.7-1-2-1.3-3-0.8c-1.1,0.5-1.7,1.7-1.4,2.8c0,0.2,3.4,16.6-6,33.6
		C169.3,43.6,160.8,49.6,151,56.5z"/>
	<path id="XMLID_9_" class="st0" d="M210.4,67.7c1-0.7,1.3-2.1,0.7-3.2c-0.6-1.1-1.9-1.6-3.1-1.1c-2.4,0.9-58.6,22.6-58.6,48.8
		c0,18.1,7.7,27.6,13.3,34.6c2.2,2.7,4.1,5.1,4.7,7.1c1.8,5.8-2.4,16.3-4.2,19.8c-0.5,1-0.3,2.3,0.6,3c0.5,0.4,1.1,0.6,1.6,0.6
		c0.5,0,1-0.1,1.4-0.4c1-0.7,23.6-16.7,19.6-36c-1.5-7.3-5.1-12.7-8.3-17.4c-4.9-7.3-8.5-12.6-3.1-22.4
		C181.4,89.6,210.1,67.9,210.4,67.7z"/>
	<path id="XMLID_10_" class="st0" d="M64,177.7c-1,2.9-0.5,5.8,1.3,8.3c6.1,8.5,27.7,13.1,60.8,13.1c0,0,0,0,0,0
		c4.5,0,9.2-0.1,14.1-0.3c52.9-1.9,72.6-18.4,73.4-19.1c0.9-0.8,1.1-2,0.6-3.1c-0.5-1-1.7-1.5-2.9-1.2c-18.6,5.1-53.5,6.9-77.6,6.9
		c-27,0-40.8-1.9-44.2-3.4c1.7-2.4,12.4-6.6,25.6-9.2c1.3-0.2,2.1-1.4,2-2.7s-1.2-2.3-2.5-2.3C106.9,164.8,68.1,165.4,64,177.7z"/>
	<path id="XMLID_11_" class="st0" d="M241.1,160.7c-10.9,0-21.3,5.5-21.7,5.7c-1,0.5-1.5,1.7-1.2,2.8c0.3,1.1,1.3,1.9,2.4,1.9
		c0.2,0,23.3,0.2,25.4,13.4c1.9,11.4-21.8,29.8-31.1,35.9c-1,0.7-1.4,1.9-0.9,3.1c0.4,0.9,1.3,1.5,2.3,1.5c0.2,0,0.3,0,0.5-0.1
		c2.2-0.5,53.9-11.9,48.4-41.9C261.9,164.5,250.3,160.7,241.1,160.7z"/>
	<path id="XMLID_12_" class="st0" d="M205.7,216.7c0.2-1-0.2-1.9-1-2.5l-12.4-8.7c-0.6-0.4-1.4-0.6-2.1-0.4
		c-0.1,0-13.1,3.4-31.9,5.5c-7.5,0.8-15.8,1.3-24.2,1.3c-18.8,0-31.1-2.2-32.9-3.8c-0.2-0.5-0.2-0.7-0.1-0.8c0.3-0.9,2.1-2,3.2-2.4
		c1.2-0.5,1.9-1.8,1.5-3.1c-0.4-1.3-1.7-2-3-1.7c-12.4,3-18.5,7.2-18.1,12.5c0.8,9.3,22.4,14.1,40.7,15.4c2.6,0.2,5.5,0.3,8.5,0.3
		c0,0,0,0,0,0c30.4,0,69.4-9.5,69.8-9.6C204.8,218.4,205.5,217.7,205.7,216.7z"/>
	<path id="XMLID_13_" class="st0" d="M112.4,236.7c0.9-0.6,1.4-1.8,1-2.8c-0.3-1.1-1.3-1.8-2.5-1.8c-1.7,0-16.3,0.7-17.3,10
		c-0.3,2.8,0.5,5.3,2.4,7.6c5.3,6.2,19.4,9.9,43.3,11.3c2.8,0.2,5.7,0.3,8.5,0.3c30.4,0,50.9-9.5,51.7-9.9c0.8-0.4,1.4-1.2,1.4-2.1
		c0-0.9-0.4-1.8-1.2-2.3l-15.7-9.6c-0.5-0.3-1.2-0.4-1.8-0.3c-0.1,0-10,2.1-25,4.1c-2.8,0.4-6.4,0.6-10.6,0.6
		c-15,0-31.6-2.4-34.8-4.1C111.8,237.5,111.9,237.1,112.4,236.7z"/>
	<path id="XMLID_14_" class="st0" d="M133.7,290c69.6-0.1,107-12.4,114.2-20.2c2.5-2.8,2.8-5.4,2.6-7.1c-0.5-4.2-4.4-6.8-4.8-7
		c-1-0.7-2.4-0.5-3.3,0.4c-0.8,0.9-0.8,2.3,0,3.3c0.4,0.6,0.7,1.5-0.6,2.8c-2.9,2.7-31.9,10.8-80.2,13.3C155,275.8,148,276,141,276
		c-43.3,0-74.9-5.9-79.1-9.4c1.6-2.3,12.8-6,24.7-8.1c1.3-0.2,2.2-1.5,2-2.8c-0.2-1.3-1.4-2.3-2.8-2.1c-0.3,0-1.5,0.1-2.8,0.2
		c-19.7,1.2-42.4,3.9-43.5,14c-0.4,3.1,0.6,5.9,2.7,8.3C47.5,282.1,62.8,290,133.7,290C133.7,290,133.7,290,133.7,290z"/>
	<path id="XMLID_15_" class="st0" d="M261.5,272c-1-0.5-2.1-0.2-2.9,0.6c-0.1,0.1-10.6,11.1-42,17.5c-12,2.4-34.7,3.6-67.2,3.6
		c-32.6,0-63.6-1.3-64-1.3c-1.3-0.1-2.4,0.9-2.6,2.2c-0.2,1.3,0.6,2.5,1.9,2.8c0.3,0.1,32.8,7.7,77.3,7.7c21.3,0,42.1-1.7,61.7-5.2
		c36.6-6.4,39.1-24.5,39.2-25.3C263.1,273.5,262.5,272.4,261.5,272z"/>
</g>
</svg>
