<?xml version="1.0" encoding="utf-8"?>
<!-- Generator: Adobe Illustrator 22.1.0, SVG Export Plug-In . SVG Version: 6.00 Build 0)  -->
<svg version="1.1" id="Layer_1" xmlns="http://www.w3.org/2000/svg" xmlns:xlink="http://www.w3.org/1999/xlink" x="0px" y="0px"
	 viewBox="0 0 434.1 434.1" style="enable-background:new 0 0 434.1 434.1;" xml:space="preserve">
<style type="text/css">
	.st0{fill:#FC490B;}
	.st1{fill:#2196F3;}
</style>
<g>
	<polygon class="st0" points="129.2,177.3 223.8,177.3 268.3,126.2 123.6,126.2 	"/>
	<path class="st0" d="M28.2,374.8c0.4,5.4,4.1,10,9.3,11.7l3.1,1l54.2-62.2l-7.2-2.3l-6-76.1h53.6v31.9l47.1-54.1H80L68.6,79.4
		h240.4l66.2-75.9c-2.4-2.2-5.5-3.5-9-3.5H13.3C5.6,0-0.6,6.6,0,14.4L28.2,374.8z"/>
</g>
<g>
	<polygon class="st1" points="433.2,0 363.6,79.9 364.5,79.9 360.2,127.8 355.8,176.9 342.6,324 244.2,351.2 244.1,351.3 
		149.9,325.2 92,391.6 244.2,434.1 399.5,390.8 434.1,0 	"/>
	<polygon class="st1" points="244.2,301.4 244.2,301.4 297.7,286.9 305,220.4 241,220.6 190,279.1 190.7,287 	"/>
	<polygon class="st1" points="311.6,139.6 281.9,173.7 309.1,173.3 	"/>
</g>
</svg>
